<mxfile host="app.diagrams.net" modified="2020-11-10T20:03:13.087Z" agent="5.0 (Windows NT 10.0; Win64; x64) AppleWebKit/537.36 (KHTML, like Gecko) Chrome/86.0.4240.183 Safari/537.36 Edg/86.0.622.63" etag="N00OUKZtKNjmJbSKt-K5" version="13.9.3" type="github">
  <diagram id="fPXrxzB9vlDihYgIFOOR" name="Page-1">
    <mxGraphModel dx="1422" dy="762" grid="1" gridSize="10" guides="1" tooltips="1" connect="1" arrows="1" fold="1" page="1" pageScale="1" pageWidth="827" pageHeight="1169" math="0" shadow="0">
      <root>
        <mxCell id="0" />
        <mxCell id="1" parent="0" />
        <object placeholders="1" c4Name="Aluno" c4Type="Person" c4Description="Acessar os &#xa;agendamentos &#xa;de aula" label="&lt;b&gt;%c4Name%&lt;/b&gt;&lt;div&gt;[%c4Type%]&lt;/div&gt;&lt;br&gt;&lt;div&gt;%c4Description%&lt;/div&gt;" id="B-xXPTXo76IvaH2Gwbt1-1">
          <mxCell style="html=1;dashed=0;whitespace=wrap;fillColor=#08427b;strokeColor=none;fontColor=#ffffff;shape=mxgraph.c4.person;align=center;metaEdit=1;points=[[0.5,0,0],[1,0.5,0],[1,0.75,0],[0.75,1,0],[0.5,1,0],[0.25,1,0],[0,0.75,0],[0,0.5,0]];metaData={&quot;c4Type&quot;:{&quot;editable&quot;:false}};" vertex="1" parent="1">
            <mxGeometry x="130" y="30" width="110.00000000000001" height="140" as="geometry" />
          </mxCell>
        </object>
        <object placeholders="1" c4Name="Professor" c4Type="Person" c4Description="Acessar e &#xa;criar agendamento &#xa;de Aulas" label="&lt;b&gt;%c4Name%&lt;/b&gt;&lt;div&gt;[%c4Type%]&lt;/div&gt;&lt;br&gt;&lt;div&gt;%c4Description%&lt;/div&gt;" id="B-xXPTXo76IvaH2Gwbt1-2">
          <mxCell style="html=1;dashed=0;whitespace=wrap;fillColor=#08427b;strokeColor=none;fontColor=#ffffff;shape=mxgraph.c4.person;align=center;metaEdit=1;points=[[0.5,0,0],[1,0.5,0],[1,0.75,0],[0.75,1,0],[0.5,1,0],[0.25,1,0],[0,0.75,0],[0,0.5,0]];metaData={&quot;c4Type&quot;:{&quot;editable&quot;:false}};" vertex="1" parent="1">
            <mxGeometry x="290" y="30" width="110.00000000000001" height="140" as="geometry" />
          </mxCell>
        </object>
        <object placeholders="1" c4Name="Gestores" c4Type="Person" c4Description="Acessar e &#xa;criar e agendamento&#xa;de sala de professores" label="&lt;b&gt;%c4Name%&lt;/b&gt;&lt;div&gt;[%c4Type%]&lt;/div&gt;&lt;br&gt;&lt;div&gt;%c4Description%&lt;/div&gt;" id="B-xXPTXo76IvaH2Gwbt1-5">
          <mxCell style="html=1;dashed=0;whitespace=wrap;fillColor=#08427b;strokeColor=none;fontColor=#ffffff;shape=mxgraph.c4.person;align=center;metaEdit=1;points=[[0.5,0,0],[1,0.5,0],[1,0.75,0],[0.75,1,0],[0.5,1,0],[0.25,1,0],[0,0.75,0],[0,0.5,0]];metaData={&quot;c4Type&quot;:{&quot;editable&quot;:false}};" vertex="1" parent="1">
            <mxGeometry x="440" y="30" width="110.00000000000001" height="140" as="geometry" />
          </mxCell>
        </object>
        <object placeholders="1" c4Type="Relationship" c4Technology="Rest/json" c4Description="Envio Salas/Usuarios/Alunos/Professores/Grade/Escolas" label="&lt;div style=&quot;text-align: left&quot;&gt;&lt;div style=&quot;text-align: center&quot;&gt;&lt;b&gt;%c4Description%&lt;/b&gt;&lt;/div&gt;&lt;div style=&quot;text-align: center&quot;&gt;[%c4Technology%]&lt;/div&gt;&lt;/div&gt;" id="B-xXPTXo76IvaH2Gwbt1-6">
          <mxCell style="edgeStyle=none;rounded=0;html=1;entryX=0;entryY=0.25;jettySize=auto;orthogonalLoop=1;strokeColor=#707070;strokeWidth=2;fontColor=#707070;jumpStyle=none;dashed=1;metaEdit=1;metaData={&quot;c4Type&quot;:{&quot;editable&quot;:false}};entryDx=0;entryDy=0;entryPerimeter=0;exitX=1.005;exitY=0.341;exitDx=0;exitDy=0;exitPerimeter=0;" edge="1" parent="1" source="B-xXPTXo76IvaH2Gwbt1-15" target="B-xXPTXo76IvaH2Gwbt1-4">
            <mxGeometry y="10" width="160" relative="1" as="geometry">
              <mxPoint x="550" y="540" as="sourcePoint" />
              <mxPoint x="710" y="540" as="targetPoint" />
              <Array as="points">
                <mxPoint x="570" y="548" />
                <mxPoint x="610" y="548" />
              </Array>
              <mxPoint as="offset" />
            </mxGeometry>
          </mxCell>
        </object>
        <object placeholders="1" c4Type="Relationship" c4Technology="Https" c4Description="Acessa, Cria, &#xa;Edita e Remove &#xa;Agendamentos da&#xa;Sala de Professores" label="&lt;div style=&quot;text-align: left&quot;&gt;&lt;div style=&quot;text-align: center&quot;&gt;&lt;b&gt;%c4Description%&lt;/b&gt;&lt;/div&gt;&lt;div style=&quot;text-align: center&quot;&gt;[%c4Technology%]&lt;/div&gt;&lt;/div&gt;" id="B-xXPTXo76IvaH2Gwbt1-8">
          <mxCell style="edgeStyle=none;rounded=0;html=1;entryX=0.75;entryY=0;jettySize=auto;orthogonalLoop=1;strokeColor=#707070;strokeWidth=2;fontColor=#707070;jumpStyle=none;dashed=1;metaEdit=1;metaData={&quot;c4Type&quot;:{&quot;editable&quot;:false}};entryDx=0;entryDy=0;entryPerimeter=0;exitX=0.5;exitY=1;exitDx=0;exitDy=0;exitPerimeter=0;" edge="1" parent="1" source="B-xXPTXo76IvaH2Gwbt1-5">
            <mxGeometry width="160" relative="1" as="geometry">
              <mxPoint x="460" y="120" as="sourcePoint" />
              <mxPoint x="390" y="340" as="targetPoint" />
            </mxGeometry>
          </mxCell>
        </object>
        <object placeholders="1" c4Type="Relationship" c4Technology="Https" c4Description="Acessar agendamento" label="&lt;div style=&quot;text-align: left&quot;&gt;&lt;div style=&quot;text-align: center&quot;&gt;&lt;b&gt;%c4Description%&lt;/b&gt;&lt;/div&gt;&lt;div style=&quot;text-align: center&quot;&gt;[%c4Technology%]&lt;/div&gt;&lt;/div&gt;" id="B-xXPTXo76IvaH2Gwbt1-9">
          <mxCell style="edgeStyle=none;rounded=0;html=1;entryX=0.11;entryY=-0.017;jettySize=auto;orthogonalLoop=1;strokeColor=#707070;strokeWidth=2;fontColor=#707070;jumpStyle=none;dashed=1;metaEdit=1;metaData={&quot;c4Type&quot;:{&quot;editable&quot;:false}};exitX=0.5;exitY=1;exitDx=0;exitDy=0;exitPerimeter=0;entryDx=0;entryDy=0;entryPerimeter=0;" edge="1" parent="1" source="B-xXPTXo76IvaH2Gwbt1-1">
            <mxGeometry width="160" relative="1" as="geometry">
              <mxPoint x="50" y="210" as="sourcePoint" />
              <mxPoint x="287.5999999999999" y="338.1300000000001" as="targetPoint" />
            </mxGeometry>
          </mxCell>
        </object>
        <object placeholders="1" c4Type="Relationship" c4Technology="Https" c4Description="Acessa, Cria, &#xa;Edita e Remove &#xa;Agendamentos" label="&lt;div style=&quot;text-align: left&quot;&gt;&lt;div style=&quot;text-align: center&quot;&gt;&lt;b&gt;%c4Description%&lt;/b&gt;&lt;/div&gt;&lt;div style=&quot;text-align: center&quot;&gt;[%c4Technology%]&lt;/div&gt;&lt;/div&gt;" id="B-xXPTXo76IvaH2Gwbt1-10">
          <mxCell style="edgeStyle=none;rounded=0;html=1;entryX=0.5;entryY=0;jettySize=auto;orthogonalLoop=1;strokeColor=#707070;strokeWidth=2;fontColor=#707070;jumpStyle=none;dashed=1;metaEdit=1;metaData={&quot;c4Type&quot;:{&quot;editable&quot;:false}};entryDx=0;entryDy=0;entryPerimeter=0;exitX=0.5;exitY=1;exitDx=0;exitDy=0;exitPerimeter=0;" edge="1" parent="1" source="B-xXPTXo76IvaH2Gwbt1-2">
            <mxGeometry width="160" relative="1" as="geometry">
              <mxPoint x="210" y="210" as="sourcePoint" />
              <mxPoint x="350" y="340" as="targetPoint" />
            </mxGeometry>
          </mxCell>
        </object>
        <object placeholders="1" c4Type="Relationship" c4Technology="Rest/Json" c4Description="Envia Link&#xa;Google Meeting e Retorno das Integrações" label="&lt;div style=&quot;text-align: left&quot;&gt;&lt;div style=&quot;text-align: center&quot;&gt;&lt;b&gt;%c4Description%&lt;/b&gt;&lt;/div&gt;&lt;div style=&quot;text-align: center&quot;&gt;[%c4Technology%]&lt;/div&gt;&lt;/div&gt;" id="B-xXPTXo76IvaH2Gwbt1-12">
          <mxCell style="edgeStyle=none;rounded=0;html=1;jettySize=auto;orthogonalLoop=1;strokeColor=#707070;strokeWidth=2;fontColor=#707070;jumpStyle=none;dashed=1;metaEdit=1;metaData={&quot;c4Type&quot;:{&quot;editable&quot;:false}};entryX=1.016;entryY=0.818;entryDx=0;entryDy=0;entryPerimeter=0;exitX=0;exitY=0.75;exitDx=0;exitDy=0;exitPerimeter=0;" edge="1" parent="1" source="B-xXPTXo76IvaH2Gwbt1-4" target="B-xXPTXo76IvaH2Gwbt1-15">
            <mxGeometry y="8" width="160" relative="1" as="geometry">
              <mxPoint x="810" y="600" as="sourcePoint" />
              <mxPoint x="670" y="365" as="targetPoint" />
              <Array as="points" />
              <mxPoint as="offset" />
            </mxGeometry>
          </mxCell>
        </object>
        <object placeholders="1" c4Name="SPA - FrontEnd" c4Type="Container" c4Technology="AngularJS" c4Description="Prove a interface com as ações &#xa;das Salas virtuais" label="&lt;b&gt;%c4Name%&lt;/b&gt;&lt;div&gt;[%c4Type%: %c4Technology%]&lt;/div&gt;&lt;br&gt;&lt;div&gt;%c4Description%&lt;/div&gt;" id="B-xXPTXo76IvaH2Gwbt1-13">
          <mxCell style="rounded=1;whiteSpace=wrap;html=1;labelBackgroundColor=none;fillColor=#85BBF0;fontColor=#ffffff;align=center;arcSize=10;strokeColor=#78A8D8;metaEdit=1;metaData={&quot;c4Type&quot;:{&quot;editable&quot;:false}};points=[[0.25,0,0],[0.5,0,0],[0.75,0,0],[1,0.25,0],[1,0.5,0],[1,0.75,0],[0.75,1,0],[0.5,1,0],[0.25,1,0],[0,0.75,0],[0,0.5,0],[0,0.25,0]];" vertex="1" parent="1">
            <mxGeometry x="265" y="340" width="160" height="110.00000000000001" as="geometry" />
          </mxCell>
        </object>
        <object placeholders="1" c4Name="API Salas Virtuais (Positivo ON)" c4Type="Container" c4Technology=".Net Framework 4.5" c4Description="Executa as ações (CRUD) via Rest/Json" label="&lt;b&gt;%c4Name%&lt;/b&gt;&lt;div&gt;[%c4Type%: %c4Technology%]&lt;/div&gt;&lt;br&gt;&lt;div&gt;%c4Description%&lt;/div&gt;" id="B-xXPTXo76IvaH2Gwbt1-14">
          <mxCell style="rounded=1;whiteSpace=wrap;html=1;labelBackgroundColor=none;fillColor=#85BBF0;fontColor=#ffffff;align=center;arcSize=10;strokeColor=#78A8D8;metaEdit=1;metaData={&quot;c4Type&quot;:{&quot;editable&quot;:false}};points=[[0.25,0,0],[0.5,0,0],[0.75,0,0],[1,0.25,0],[1,0.5,0],[1,0.75,0],[0.75,1,0],[0.5,1,0],[0.25,1,0],[0,0.75,0],[0,0.5,0],[0,0.25,0]];" vertex="1" parent="1">
            <mxGeometry x="100" y="510" width="180" height="110" as="geometry" />
          </mxCell>
        </object>
        <object placeholders="1" c4Name="API Integrações" c4Type="Container" c4Technology=".NET Core 3.0" c4Description="Realiza as integrações e Jobs agendados &#xa;entre Positivo ON e ForEdu" label="&lt;b&gt;%c4Name%&lt;/b&gt;&lt;div&gt;[%c4Type%: %c4Technology%]&lt;/div&gt;&lt;br&gt;&lt;div&gt;%c4Description%&lt;/div&gt;" id="B-xXPTXo76IvaH2Gwbt1-15">
          <mxCell style="rounded=1;whiteSpace=wrap;html=1;labelBackgroundColor=none;fillColor=#85BBF0;fontColor=#ffffff;align=center;arcSize=10;strokeColor=#78A8D8;metaEdit=1;metaData={&quot;c4Type&quot;:{&quot;editable&quot;:false}};points=[[0.25,0,0],[0.5,0,0],[0.75,0,0],[1,0.25,0],[1,0.5,0],[1,0.75,0],[0.75,1,0],[0.5,1,0],[0.25,1,0],[0,0.75,0],[0,0.5,0],[0,0.25,0]];" vertex="1" parent="1">
            <mxGeometry x="390" y="510" width="160" height="110.00000000000001" as="geometry" />
          </mxCell>
        </object>
        <object placeholders="1" c4Type="Database" c4Technology="SQL Server " c4Description="dbpdIntegracao" label="%c4Type%&lt;div&gt;[Container:&amp;nbsp;%c4Technology%]&lt;/div&gt;&lt;br&gt;&lt;div&gt;%c4Description%&lt;/div&gt;" id="B-xXPTXo76IvaH2Gwbt1-16">
          <mxCell style="shape=cylinder;whiteSpace=wrap;html=1;boundedLbl=1;rounded=0;labelBackgroundColor=none;fillColor=#438DD5;fontSize=12;fontColor=#ffffff;align=center;strokeColor=#3C7FC0;metaEdit=1;points=[[0.5,0,0],[1,0.25,0],[1,0.5,0],[1,0.75,0],[0.5,1,0],[0,0.75,0],[0,0.5,0],[0,0.25,0]];metaData={&quot;c4Type&quot;:{&quot;editable&quot;:false}};" vertex="1" parent="1">
            <mxGeometry x="70" y="1030" width="140" height="105" as="geometry" />
          </mxCell>
        </object>
        <object placeholders="1" c4Type="Database" c4Technology="SQL Server - Azure" c4Description="ApiPSD" label="%c4Type%&lt;div&gt;[Container:&amp;nbsp;%c4Technology%]&lt;/div&gt;&lt;br&gt;&lt;div&gt;%c4Description%&lt;/div&gt;" id="B-xXPTXo76IvaH2Gwbt1-17">
          <mxCell style="shape=cylinder;whiteSpace=wrap;html=1;boundedLbl=1;rounded=0;labelBackgroundColor=none;fillColor=#438DD5;fontSize=12;fontColor=#ffffff;align=center;strokeColor=#3C7FC0;metaEdit=1;points=[[0.5,0,0],[1,0.25,0],[1,0.5,0],[1,0.75,0],[0.5,1,0],[0,0.75,0],[0,0.5,0],[0,0.25,0]];metaData={&quot;c4Type&quot;:{&quot;editable&quot;:false}};" vertex="1" parent="1">
            <mxGeometry x="750" y="1035" width="140" height="100" as="geometry" />
          </mxCell>
        </object>
        <object placeholders="1" c4Name="ForEdu" c4Type="Software System" c4Description="Criação de Salas Virtuais&#xa;no Google meeting" label="&lt;b&gt;%c4Name%&lt;/b&gt;&lt;div&gt;[%c4Type%]&lt;/div&gt;&lt;br&gt;&lt;div&gt;%c4Description%&lt;/div&gt;" id="B-xXPTXo76IvaH2Gwbt1-4">
          <mxCell style="rounded=1;whiteSpace=wrap;html=1;labelBackgroundColor=none;fillColor=#999999;fontColor=#ffffff;align=center;arcSize=10;strokeColor=#8A8A8A;metaEdit=1;metaData={&quot;c4Type&quot;:{&quot;editable&quot;:false}};points=[[0.25,0,0],[0.5,0,0],[0.75,0,0],[1,0.25,0],[1,0.5,0],[1,0.75,0],[0.75,1,0],[0.5,1,0],[0.25,1,0],[0,0.75,0],[0,0.5,0],[0,0.25,0]];" vertex="1" parent="1">
            <mxGeometry x="980" y="520" width="160" height="110.00000000000001" as="geometry" />
          </mxCell>
        </object>
        <object placeholders="1" c4Name="SAML" c4Type="Software System" c4Description="Realiza Autenticação e faz redirecionamento" label="&lt;b&gt;%c4Name%&lt;/b&gt;&lt;div&gt;[%c4Type%]&lt;/div&gt;&lt;br&gt;&lt;div&gt;%c4Description%&lt;/div&gt;" id="B-xXPTXo76IvaH2Gwbt1-21">
          <mxCell style="rounded=1;whiteSpace=wrap;html=1;labelBackgroundColor=none;fillColor=#999999;fontColor=#ffffff;align=center;arcSize=10;strokeColor=#8A8A8A;metaEdit=1;metaData={&quot;c4Type&quot;:{&quot;editable&quot;:false}};points=[[0.25,0,0],[0.5,0,0],[0.75,0,0],[1,0.25,0],[1,0.5,0],[1,0.75,0],[0.75,1,0],[0.5,1,0],[0.25,1,0],[0,0.75,0],[0,0.5,0],[0,0.25,0]];" vertex="1" parent="1">
            <mxGeometry x="980" y="320" width="160" height="110.00000000000001" as="geometry" />
          </mxCell>
        </object>
        <object placeholders="1" c4Type="Relationship" c4Technology="Https" c4Description="Token e Link &#xa;de Redirecionamento" label="&lt;div style=&quot;text-align: left&quot;&gt;&lt;div style=&quot;text-align: center&quot;&gt;&lt;b&gt;%c4Description%&lt;/b&gt;&lt;/div&gt;&lt;div style=&quot;text-align: center&quot;&gt;[%c4Technology%]&lt;/div&gt;&lt;/div&gt;" id="B-xXPTXo76IvaH2Gwbt1-22">
          <mxCell style="edgeStyle=none;rounded=0;html=1;entryX=0;entryY=0.682;jettySize=auto;orthogonalLoop=1;strokeColor=#707070;strokeWidth=2;fontColor=#707070;jumpStyle=none;dashed=1;metaEdit=1;metaData={&quot;c4Type&quot;:{&quot;editable&quot;:false}};entryDx=0;entryDy=0;entryPerimeter=0;exitX=1;exitY=0.5;exitDx=0;exitDy=0;exitPerimeter=0;" edge="1" parent="1" target="B-xXPTXo76IvaH2Gwbt1-21" source="B-xXPTXo76IvaH2Gwbt1-13">
            <mxGeometry x="-0.1504" y="9" width="160" relative="1" as="geometry">
              <mxPoint x="515" y="435" as="sourcePoint" />
              <mxPoint x="740" y="470" as="targetPoint" />
              <mxPoint as="offset" />
            </mxGeometry>
          </mxCell>
        </object>
        <object placeholders="1" c4Type="Relationship" c4Technology="Rest/json" c4Description="Criação Salas" label="&lt;div style=&quot;text-align: left&quot;&gt;&lt;div style=&quot;text-align: center&quot;&gt;&lt;b&gt;%c4Description%&lt;/b&gt;&lt;/div&gt;&lt;div style=&quot;text-align: center&quot;&gt;[%c4Technology%]&lt;/div&gt;&lt;/div&gt;" id="B-xXPTXo76IvaH2Gwbt1-23">
          <mxCell style="edgeStyle=none;rounded=0;html=1;jettySize=auto;orthogonalLoop=1;strokeColor=#707070;strokeWidth=2;fontColor=#707070;jumpStyle=none;dashed=1;metaEdit=1;metaData={&quot;c4Type&quot;:{&quot;editable&quot;:false}};exitX=1;exitY=0.25;exitDx=0;exitDy=0;exitPerimeter=0;" edge="1" parent="1" source="B-xXPTXo76IvaH2Gwbt1-14">
            <mxGeometry y="10" width="160" relative="1" as="geometry">
              <mxPoint x="300.00000000000017" y="537.51" as="sourcePoint" />
              <mxPoint x="390" y="538" as="targetPoint" />
              <Array as="points">
                <mxPoint x="319.2" y="538" />
                <mxPoint x="359.2" y="538" />
              </Array>
              <mxPoint as="offset" />
            </mxGeometry>
          </mxCell>
        </object>
        <object placeholders="1" c4Type="Relationship" c4Technology="Rest/Json" c4Description="Envia Link do &#xa;Google Meeting" label="&lt;div style=&quot;text-align: left&quot;&gt;&lt;div style=&quot;text-align: center&quot;&gt;&lt;b&gt;%c4Description%&lt;/b&gt;&lt;/div&gt;&lt;div style=&quot;text-align: center&quot;&gt;[%c4Technology%]&lt;/div&gt;&lt;/div&gt;" id="B-xXPTXo76IvaH2Gwbt1-24">
          <mxCell style="edgeStyle=none;rounded=0;html=1;jettySize=auto;orthogonalLoop=1;strokeColor=#707070;strokeWidth=2;fontColor=#707070;jumpStyle=none;dashed=1;metaEdit=1;metaData={&quot;c4Type&quot;:{&quot;editable&quot;:false}};entryX=1;entryY=0.75;entryDx=0;entryDy=0;entryPerimeter=0;" edge="1" parent="1" target="B-xXPTXo76IvaH2Gwbt1-14">
            <mxGeometry y="8" width="160" relative="1" as="geometry">
              <mxPoint x="390" y="590" as="sourcePoint" />
              <mxPoint x="301.76000000000016" y="589.9800000000002" as="targetPoint" />
              <Array as="points" />
              <mxPoint as="offset" />
            </mxGeometry>
          </mxCell>
        </object>
        <object placeholders="1" c4Type="Relationship" c4Technology="JSON/Https" c4Description="CRUD Agendamento" label="&lt;div style=&quot;text-align: left&quot;&gt;&lt;div style=&quot;text-align: center&quot;&gt;&lt;b&gt;%c4Description%&lt;/b&gt;&lt;/div&gt;&lt;div style=&quot;text-align: center&quot;&gt;[%c4Technology%]&lt;/div&gt;&lt;/div&gt;" id="B-xXPTXo76IvaH2Gwbt1-25">
          <mxCell style="edgeStyle=none;rounded=0;html=1;entryX=0.69;entryY=-0.015;jettySize=auto;orthogonalLoop=1;strokeColor=#707070;strokeWidth=2;fontColor=#707070;jumpStyle=none;dashed=1;metaEdit=1;metaData={&quot;c4Type&quot;:{&quot;editable&quot;:false}};exitX=0.094;exitY=1.023;exitDx=0;exitDy=0;exitPerimeter=0;entryDx=0;entryDy=0;entryPerimeter=0;" edge="1" parent="1" source="B-xXPTXo76IvaH2Gwbt1-13" target="B-xXPTXo76IvaH2Gwbt1-14">
            <mxGeometry x="-0.149" y="-9" width="160" relative="1" as="geometry">
              <mxPoint x="265" y="470" as="sourcePoint" />
              <mxPoint x="425" y="470" as="targetPoint" />
              <mxPoint as="offset" />
            </mxGeometry>
          </mxCell>
        </object>
        <object placeholders="1" c4Type="Relationship" c4Technology="ADO .NET" c4Description="CRUD Agendamentos" label="&lt;div style=&quot;text-align: left&quot;&gt;&lt;div style=&quot;text-align: center&quot;&gt;&lt;b&gt;%c4Description%&lt;/b&gt;&lt;/div&gt;&lt;div style=&quot;text-align: center&quot;&gt;[%c4Technology%]&lt;/div&gt;&lt;/div&gt;" id="B-xXPTXo76IvaH2Gwbt1-28">
          <mxCell style="edgeStyle=none;rounded=0;html=1;jettySize=auto;orthogonalLoop=1;strokeColor=#707070;strokeWidth=2;fontColor=#707070;jumpStyle=none;dashed=1;metaEdit=1;metaData={&quot;c4Type&quot;:{&quot;editable&quot;:false}};exitX=0.468;exitY=0.992;exitDx=0;exitDy=0;exitPerimeter=0;entryX=0.186;entryY=0.038;entryDx=0;entryDy=0;entryPerimeter=0;" edge="1" parent="1" source="B-xXPTXo76IvaH2Gwbt1-14" target="B-xXPTXo76IvaH2Gwbt1-16">
            <mxGeometry width="160" relative="1" as="geometry">
              <mxPoint x="210" y="680" as="sourcePoint" />
              <mxPoint x="180" y="750" as="targetPoint" />
            </mxGeometry>
          </mxCell>
        </object>
        <object placeholders="1" c4Type="Relationship" c4Technology="Dapper/Entity" c4Description="Leitura e Escrita&#xa;de Dados de Integração" label="&lt;div style=&quot;text-align: left&quot;&gt;&lt;div style=&quot;text-align: center&quot;&gt;&lt;b&gt;%c4Description%&lt;/b&gt;&lt;/div&gt;&lt;div style=&quot;text-align: center&quot;&gt;[%c4Technology%]&lt;/div&gt;&lt;/div&gt;" id="B-xXPTXo76IvaH2Gwbt1-29">
          <mxCell style="edgeStyle=none;rounded=0;html=1;jettySize=auto;orthogonalLoop=1;strokeColor=#707070;strokeWidth=2;fontColor=#707070;jumpStyle=none;dashed=1;metaEdit=1;metaData={&quot;c4Type&quot;:{&quot;editable&quot;:false}};exitX=0.819;exitY=1.045;exitDx=0;exitDy=0;exitPerimeter=0;" edge="1" parent="1" source="B-xXPTXo76IvaH2Gwbt1-15">
            <mxGeometry x="0.3922" y="4" width="160" relative="1" as="geometry">
              <mxPoint x="440" y="660" as="sourcePoint" />
              <mxPoint x="860" y="1038" as="targetPoint" />
              <mxPoint as="offset" />
            </mxGeometry>
          </mxCell>
        </object>
        <object placeholders="1" c4Type="Relationship" c4Technology="Dapper" c4Description="Leitura e Escrita&#xa;de Dados de Integração" label="&lt;div style=&quot;text-align: left&quot;&gt;&lt;div style=&quot;text-align: center&quot;&gt;&lt;b&gt;%c4Description%&lt;/b&gt;&lt;/div&gt;&lt;div style=&quot;text-align: center&quot;&gt;[%c4Technology%]&lt;/div&gt;&lt;/div&gt;" id="B-xXPTXo76IvaH2Gwbt1-30">
          <mxCell style="edgeStyle=none;rounded=0;html=1;jettySize=auto;orthogonalLoop=1;strokeColor=#707070;strokeWidth=2;fontColor=#707070;jumpStyle=none;dashed=1;metaEdit=1;metaData={&quot;c4Type&quot;:{&quot;editable&quot;:false}};exitX=-0.006;exitY=0.918;exitDx=0;exitDy=0;exitPerimeter=0;entryX=0.607;entryY=-0.019;entryDx=0;entryDy=0;entryPerimeter=0;" edge="1" parent="1" source="B-xXPTXo76IvaH2Gwbt1-15" target="B-xXPTXo76IvaH2Gwbt1-16">
            <mxGeometry x="0.5962" width="160" relative="1" as="geometry">
              <mxPoint x="440" y="660" as="sourcePoint" />
              <mxPoint x="600" y="660" as="targetPoint" />
              <mxPoint as="offset" />
            </mxGeometry>
          </mxCell>
        </object>
        <object placeholders="1" c4Type="Database" c4Technology="SQLServer" c4Description="dbpdUser" label="%c4Type%&lt;div&gt;[Container:&amp;nbsp;%c4Technology%]&lt;/div&gt;&lt;br&gt;&lt;div&gt;%c4Description%&lt;/div&gt;" id="B-xXPTXo76IvaH2Gwbt1-31">
          <mxCell style="shape=cylinder;whiteSpace=wrap;html=1;boundedLbl=1;rounded=0;labelBackgroundColor=none;fillColor=#438DD5;fontSize=12;fontColor=#ffffff;align=center;strokeColor=#3C7FC0;metaEdit=1;points=[[0.5,0,0],[1,0.25,0],[1,0.5,0],[1,0.75,0],[0.5,1,0],[0,0.75,0],[0,0.5,0],[0,0.25,0]];metaData={&quot;c4Type&quot;:{&quot;editable&quot;:false}};" vertex="1" parent="1">
            <mxGeometry x="403.5" y="1035" width="140" height="100" as="geometry" />
          </mxCell>
        </object>
        <object placeholders="1" c4Type="Database" c4Technology="SQLServer" c4Description="dbpdAccount" label="%c4Type%&lt;div&gt;[Container:&amp;nbsp;%c4Technology%]&lt;/div&gt;&lt;br&gt;&lt;div&gt;%c4Description%&lt;/div&gt;" id="B-xXPTXo76IvaH2Gwbt1-32">
          <mxCell style="shape=cylinder;whiteSpace=wrap;html=1;boundedLbl=1;rounded=0;labelBackgroundColor=none;fillColor=#438DD5;fontSize=12;fontColor=#ffffff;align=center;strokeColor=#3C7FC0;metaEdit=1;points=[[0.5,0,0],[1,0.25,0],[1,0.5,0],[1,0.75,0],[0.5,1,0],[0,0.75,0],[0,0.5,0],[0,0.25,0]];metaData={&quot;c4Type&quot;:{&quot;editable&quot;:false}};" vertex="1" parent="1">
            <mxGeometry x="570" y="1035" width="140" height="100" as="geometry" />
          </mxCell>
        </object>
        <object placeholders="1" c4Type="Database" c4Technology="SQLServer" c4Description="dbpdConfiguration" label="%c4Type%&lt;div&gt;[Container:&amp;nbsp;%c4Technology%]&lt;/div&gt;&lt;br&gt;&lt;div&gt;%c4Description%&lt;/div&gt;" id="B-xXPTXo76IvaH2Gwbt1-33">
          <mxCell style="shape=cylinder;whiteSpace=wrap;html=1;boundedLbl=1;rounded=0;labelBackgroundColor=none;fillColor=#438DD5;fontSize=12;fontColor=#ffffff;align=center;strokeColor=#3C7FC0;metaEdit=1;points=[[0.5,0,0],[1,0.25,0],[1,0.5,0],[1,0.75,0],[0.5,1,0],[0,0.75,0],[0,0.5,0],[0,0.25,0]];metaData={&quot;c4Type&quot;:{&quot;editable&quot;:false}};" vertex="1" parent="1">
            <mxGeometry x="240" y="1035" width="140" height="100" as="geometry" />
          </mxCell>
        </object>
        <object placeholders="1" c4Type="Relationship" c4Technology="Dapper" c4Description="Leitura&#xa;de Dados de Integração" label="&lt;div style=&quot;text-align: left&quot;&gt;&lt;div style=&quot;text-align: center&quot;&gt;&lt;b&gt;%c4Description%&lt;/b&gt;&lt;/div&gt;&lt;div style=&quot;text-align: center&quot;&gt;[%c4Technology%]&lt;/div&gt;&lt;/div&gt;" id="B-xXPTXo76IvaH2Gwbt1-36">
          <mxCell style="edgeStyle=none;rounded=0;html=1;jettySize=auto;orthogonalLoop=1;strokeColor=#707070;strokeWidth=2;fontColor=#707070;jumpStyle=none;dashed=1;metaEdit=1;metaData={&quot;c4Type&quot;:{&quot;editable&quot;:false}};exitX=0.5;exitY=1;exitDx=0;exitDy=0;exitPerimeter=0;entryX=0.886;entryY=0.08;entryDx=0;entryDy=0;entryPerimeter=0;" edge="1" parent="1" source="B-xXPTXo76IvaH2Gwbt1-15" target="B-xXPTXo76IvaH2Gwbt1-32">
            <mxGeometry x="0.1404" y="3" width="160" relative="1" as="geometry">
              <mxPoint x="425" y="670.0000000000001" as="sourcePoint" />
              <mxPoint x="653.96" y="781.087262510035" as="targetPoint" />
              <mxPoint as="offset" />
            </mxGeometry>
          </mxCell>
        </object>
        <object placeholders="1" c4Type="Relationship" c4Technology="Dapper" c4Description="Leitura&#xa;de Dados de Integração" label="&lt;div style=&quot;text-align: left&quot;&gt;&lt;div style=&quot;text-align: center&quot;&gt;&lt;b&gt;%c4Description%&lt;/b&gt;&lt;/div&gt;&lt;div style=&quot;text-align: center&quot;&gt;[%c4Technology%]&lt;/div&gt;&lt;/div&gt;" id="B-xXPTXo76IvaH2Gwbt1-37">
          <mxCell style="edgeStyle=none;rounded=0;html=1;jettySize=auto;orthogonalLoop=1;strokeColor=#707070;strokeWidth=2;fontColor=#707070;jumpStyle=none;dashed=1;metaEdit=1;metaData={&quot;c4Type&quot;:{&quot;editable&quot;:false}};exitX=0.5;exitY=1;exitDx=0;exitDy=0;exitPerimeter=0;entryX=0.5;entryY=0;entryDx=0;entryDy=0;entryPerimeter=0;" edge="1" parent="1" source="B-xXPTXo76IvaH2Gwbt1-15" target="B-xXPTXo76IvaH2Gwbt1-31">
            <mxGeometry x="-0.2282" y="19" width="160" relative="1" as="geometry">
              <mxPoint x="425" y="620" as="sourcePoint" />
              <mxPoint x="608.96" y="781.0872625100351" as="targetPoint" />
              <mxPoint as="offset" />
            </mxGeometry>
          </mxCell>
        </object>
        <object placeholders="1" c4Type="Relationship" c4Technology="Dapper" c4Description="Leitura&#xa;de Dados de Integração" label="&lt;div style=&quot;text-align: left&quot;&gt;&lt;div style=&quot;text-align: center&quot;&gt;&lt;b&gt;%c4Description%&lt;/b&gt;&lt;/div&gt;&lt;div style=&quot;text-align: center&quot;&gt;[%c4Technology%]&lt;/div&gt;&lt;/div&gt;" id="B-xXPTXo76IvaH2Gwbt1-38">
          <mxCell style="edgeStyle=none;rounded=0;html=1;jettySize=auto;orthogonalLoop=1;strokeColor=#707070;strokeWidth=2;fontColor=#707070;jumpStyle=none;dashed=1;metaEdit=1;metaData={&quot;c4Type&quot;:{&quot;editable&quot;:false}};" edge="1" parent="1" target="B-xXPTXo76IvaH2Gwbt1-33">
            <mxGeometry x="-0.596" y="-12" width="160" relative="1" as="geometry">
              <mxPoint x="470" y="620" as="sourcePoint" />
              <mxPoint x="473.96000000000004" y="791.0872625100351" as="targetPoint" />
              <mxPoint as="offset" />
            </mxGeometry>
          </mxCell>
        </object>
        <object placeholders="1" c4Type="Relationship" c4Technology="Entity" c4Description="Leitura" label="&lt;div style=&quot;text-align: left&quot;&gt;&lt;div style=&quot;text-align: center&quot;&gt;&lt;b&gt;%c4Description%&lt;/b&gt;&lt;/div&gt;&lt;div style=&quot;text-align: center&quot;&gt;[%c4Technology%]&lt;/div&gt;&lt;/div&gt;" id="B-xXPTXo76IvaH2Gwbt1-39">
          <mxCell style="edgeStyle=none;rounded=0;html=1;entryX=0.5;entryY=0;jettySize=auto;orthogonalLoop=1;strokeColor=#707070;strokeWidth=2;fontColor=#707070;jumpStyle=none;dashed=1;metaEdit=1;metaData={&quot;c4Type&quot;:{&quot;editable&quot;:false}};entryDx=0;entryDy=0;entryPerimeter=0;exitX=0.689;exitY=1.027;exitDx=0;exitDy=0;exitPerimeter=0;" edge="1" parent="1" source="B-xXPTXo76IvaH2Gwbt1-14" target="B-xXPTXo76IvaH2Gwbt1-33">
            <mxGeometry x="0.3303" y="14" width="160" relative="1" as="geometry">
              <mxPoint x="220" y="630" as="sourcePoint" />
              <mxPoint x="380" y="630" as="targetPoint" />
              <mxPoint as="offset" />
            </mxGeometry>
          </mxCell>
        </object>
        <object placeholders="1" c4Type="Relationship" c4Technology="Entity" c4Description="Leitura" label="&lt;div style=&quot;text-align: left&quot;&gt;&lt;div style=&quot;text-align: center&quot;&gt;&lt;b&gt;%c4Description%&lt;/b&gt;&lt;/div&gt;&lt;div style=&quot;text-align: center&quot;&gt;[%c4Technology%]&lt;/div&gt;&lt;/div&gt;" id="B-xXPTXo76IvaH2Gwbt1-41">
          <mxCell style="edgeStyle=none;rounded=0;html=1;entryX=0.404;entryY=0.1;jettySize=auto;orthogonalLoop=1;strokeColor=#707070;strokeWidth=2;fontColor=#707070;jumpStyle=none;dashed=1;metaEdit=1;metaData={&quot;c4Type&quot;:{&quot;editable&quot;:false}};entryDx=0;entryDy=0;entryPerimeter=0;exitX=0.706;exitY=1.027;exitDx=0;exitDy=0;exitPerimeter=0;" edge="1" parent="1" source="B-xXPTXo76IvaH2Gwbt1-14" target="B-xXPTXo76IvaH2Gwbt1-31">
            <mxGeometry x="0.6224" y="10" width="160" relative="1" as="geometry">
              <mxPoint x="234.01999999999998" y="632.97" as="sourcePoint" />
              <mxPoint x="330" y="790" as="targetPoint" />
              <mxPoint as="offset" />
            </mxGeometry>
          </mxCell>
        </object>
        <object placeholders="1" c4Type="Relationship" c4Technology="Entity" c4Description="Leitura" label="&lt;div style=&quot;text-align: left&quot;&gt;&lt;div style=&quot;text-align: center&quot;&gt;&lt;b&gt;%c4Description%&lt;/b&gt;&lt;/div&gt;&lt;div style=&quot;text-align: center&quot;&gt;[%c4Technology%]&lt;/div&gt;&lt;/div&gt;" id="B-xXPTXo76IvaH2Gwbt1-42">
          <mxCell style="edgeStyle=none;rounded=0;html=1;entryX=0.321;entryY=0.02;jettySize=auto;orthogonalLoop=1;strokeColor=#707070;strokeWidth=2;fontColor=#707070;jumpStyle=none;dashed=1;metaEdit=1;metaData={&quot;c4Type&quot;:{&quot;editable&quot;:false}};entryDx=0;entryDy=0;entryPerimeter=0;" edge="1" parent="1" target="B-xXPTXo76IvaH2Gwbt1-32">
            <mxGeometry x="0.7031" y="-13" width="160" relative="1" as="geometry">
              <mxPoint x="220" y="620" as="sourcePoint" />
              <mxPoint x="480.05999999999995" y="800" as="targetPoint" />
              <mxPoint as="offset" />
            </mxGeometry>
          </mxCell>
        </object>
      </root>
    </mxGraphModel>
  </diagram>
</mxfile>
